<?xml version="1.0" encoding="utf-8"?>
<!-- Generator: Adobe Illustrator 21.1.0, SVG Export Plug-In . SVG Version: 6.00 Build 0)  -->
<svg version="1.1" id="Layer_1" xmlns="http://www.w3.org/2000/svg" xmlns:xlink="http://www.w3.org/1999/xlink" x="0px" y="0px"
	 viewBox="0 0 90 30" style="enable-background:new 0 0 90 30;" xml:space="preserve">
<style type="text/css">
	.st0{fill:#FFFFFF;}
	.st1{fill:#505F6E;}
	.st2{fill:#FF3C64;}
	.st3{fill:#D13253;}
	.st4{fill:#333333;}
	.st5{fill:#FFBE28;}
	.st6{fill:#FF8E28;}
	.st7{fill:url(#SVGID_1_);}
	.st8{fill:url(#SVGID_2_);}
	.st9{fill:#779332;}
	.st10{fill:#89AE3F;}
	.st11{fill:none;}
	.st12{opacity:0.2;}
	.st13{fill:url(#SVGID_3_);}
	.st14{fill:url(#SVGID_4_);}
	.st15{opacity:0.3;fill:#FFFFFF;}
	.st16{fill:url(#SVGID_5_);}
	.st17{fill:url(#SVGID_6_);}
	.st18{fill:#808080;}
</style>
<g>
	<path class="st0" d="M88.2,6.2C85.3,1.5,79,0.9,74.1,0.6c-7-0.5-15.1-1.3-22,0.3C47.7,2,43.8,3,39.2,2.9C34.8,2.7,30.5,2.3,26.1,2
		C19.5,1.5,11.6-0.1,5.3,2.8C-4.1,7.1,0.1,21.4,9.2,23c4.5,0.8,9.4,0.5,13.9,0.6c5.1,0.1,10.3,0.5,15.4,0.2c5-0.3,9.9-1.6,14.9-1.7
		c2.8,0,5.7,0.4,8.5,0.6c0.7,0.1,2,0,2.7,0.3c2.5,1.1-1.2,3.7-3.6,4.6c-0.7,0.3-0.9,1.4,0,1.7c3.5,0.9,7.4,1,10.7-0.9
		c0.9-0.5,2-1.2,2.6-2.2c0.1-0.1,0.6-2.1,0.6-2.6c4.6,0.2,11.5,1.2,13.9-3.6C90.6,16.3,90.3,9.7,88.2,6.2z M88,15.4
		c-0.4,7.8-7.9,6.7-13.6,6.5c0,0,0,0,0,0c0,0-0.1,0-0.1,0c-0.1,0-0.2,0-0.3,0.1c0,0,0,0,0,0c-0.2,0.1-0.3,0.2-0.5,0.3
		c-0.2,0.1-0.5,0.5-0.4,0.7c0.5,4.7-5.1,5.4-9,5.1c2.2-1.3,4.4-3.3,3.4-5.5c-0.3-0.7-1.2-0.9-1.8-1.2c-3.1-1.4-8.8-1-12.2-1
		c-4.6,0.1-9.2,1.2-13.8,1.6c-4.7,0.4-9.5,0.1-14.3-0.1c-4.5-0.1-9.1-0.1-13.5-0.4c-4.3-0.4-7.5-1.4-9.1-5.8c-0.6-1.6-1.2-4.3-1-5.8
		C3-1.1,24.4,3.6,31.2,4.1c3.9,0.3,7.9,0.8,11.8,0.5c3.9-0.2,7.4-1.8,11.3-2.4C58.1,1.7,62.2,2,66,2c4.7,0.1,10.3-0.2,14.8,1.2
		C86.6,5.2,88.3,9.7,88,15.4z"/>
	<g>
		<path class="st0" d="M8.8,12.8C8.5,10.4,10,8.1,13,7.6c1.1-0.2,2,0,2.8,0.4c0.3,0.2,0.4,0.5,0.2,0.8l-0.3,0.4
			c-0.2,0.3-0.5,0.4-0.8,0.2c-0.5-0.2-1.2-0.3-1.7-0.2c-1.8,0.2-2.6,1.6-2.4,3.2c0.2,1.5,1.5,2.6,3.2,2.4c0.6-0.1,1.1-0.3,1.6-0.7
			c0.3-0.2,0.6-0.3,0.9,0l0.4,0.3c0.3,0.3,0.3,0.6,0.1,0.8c-0.7,0.6-1.5,1.1-2.6,1.2C11.3,17.1,9.2,15.3,8.8,12.8z"/>
		<path class="st0" d="M17.6,13.5c0-1.9,1.5-3.4,3.6-3.4c2.1,0,3.6,1.5,3.6,3.4s-1.5,3.4-3.6,3.4C19.2,16.9,17.6,15.4,17.6,13.5z
			 M23,13.5c0-1-0.8-1.8-1.7-1.8c-1,0-1.7,0.8-1.7,1.8c0,1,0.8,1.8,1.7,1.8C22.2,15.3,23,14.5,23,13.5z"/>
		<path class="st0" d="M25.6,16l0.2-5.3c0-0.4,0.2-0.6,0.6-0.6l0.7,0c0.4,0,0.6,0.2,0.6,0.6l0,0.4c0.3-0.7,1.1-1.1,2-1.1
			c1.7,0.1,2.3,1.5,2.3,3l-0.1,3.1c0,0.4-0.3,0.6-0.6,0.6l-0.7,0c-0.4,0-0.6-0.2-0.6-0.6l0.1-3c0-0.9-0.3-1.5-1-1.5
			c-0.7,0-1.4,0.5-1.4,1.7l-0.1,2.7c0,0.4-0.2,0.6-0.6,0.6l-0.7,0C25.8,16.6,25.6,16.4,25.6,16z"/>
		<path class="st0" d="M33.7,14.7l-0.2-2.9l-0.6,0c-0.2,0-0.3-0.1-0.3-0.3l-0.1-0.8c0-0.2,0.1-0.3,0.3-0.3l0.8-0.1L33.7,9
			c0-0.3,0.2-0.4,0.5-0.4l0.6,0c0.3,0,0.5,0.1,0.5,0.4l0.1,1.3l1.5-0.1c0.2,0,0.3,0.1,0.3,0.3l0.1,0.8c0,0.2-0.1,0.3-0.3,0.3
			l-1.5,0.1l0.2,2.9c0,0.5,0.3,0.7,0.6,0.6c0.3,0,0.5-0.3,0.5-0.6c0-0.1,0-0.1,0-0.2c0-0.2,0-0.3,0.2-0.4l0.8-0.1
			c0.2,0,0.3,0,0.4,0.2c0.1,0.2,0.1,0.4,0.1,0.5c0.1,1.4-0.9,2-2,2.1C35,16.9,33.8,16.5,33.7,14.7z"/>
		<path class="st0" d="M39.1,13.1c0.2-1.9,1.6-3.2,3.4-3.1c0.9,0.1,1.6,0.5,2,1.3l0-0.3c0-0.4,0.3-0.6,0.7-0.5l0.7,0.1
			c0.4,0,0.6,0.3,0.5,0.7L46,16.4c0,0.4-0.3,0.6-0.7,0.5l-0.7-0.1c-0.4,0-0.6-0.3-0.5-0.7l0-0.3c-0.5,0.7-1.3,0.9-2.2,0.8
			C40,16.6,38.9,15,39.1,13.1z M44.3,13.6c0.1-1-0.5-1.9-1.5-2c-1-0.1-1.7,0.7-1.8,1.7c-0.1,1,0.4,1.9,1.4,2
			C43.4,15.4,44.2,14.6,44.3,13.6z"/>
		<path class="st0" d="M47.4,13.7c-0.1-1.9,1.3-3.5,3.6-3.6c0.6,0,1.4,0.1,2.1,0.4c0.4,0.2,0.4,0.5,0.2,0.9l-0.2,0.3
			c-0.2,0.3-0.5,0.3-0.9,0.2c-0.4-0.2-0.8-0.2-1-0.2c-1.1,0.1-1.9,0.8-1.8,1.9c0.1,1.1,0.9,1.8,2,1.7c0.2,0,0.6-0.1,1-0.3
			c0.4-0.2,0.6-0.2,0.9,0.1l0.2,0.2c0.3,0.3,0.2,0.7-0.2,0.9c-0.6,0.4-1.3,0.6-1.9,0.6C49.1,16.9,47.5,15.5,47.4,13.7z"/>
		<path class="st0" d="M55,14.3l0.3-2.9l-0.6-0.1c-0.2,0-0.3-0.2-0.3-0.4l0.1-0.8c0-0.2,0.2-0.3,0.4-0.3l0.8,0.1L56,8.8
			c0.1-0.3,0.3-0.4,0.5-0.3l0.6,0.1c0.3,0,0.4,0.2,0.4,0.5l-0.1,1.3l1.5,0.2c0.2,0,0.3,0.1,0.3,0.4L59,11.6c0,0.2-0.1,0.3-0.4,0.3
			l-1.5-0.2l-0.3,2.9c-0.1,0.5,0.2,0.7,0.5,0.7c0.3,0,0.6-0.2,0.6-0.5c0-0.1,0-0.1,0-0.2c0-0.2,0.1-0.3,0.3-0.3l0.8,0.1
			c0.2,0,0.3,0.1,0.3,0.3c0,0.2,0,0.4,0,0.5c-0.2,1.4-1.2,1.9-2.4,1.7C55.9,16.8,54.8,16.1,55,14.3z"/>
		<path class="st0" d="M63.5,13.3l0.1-4.9c0-0.4,0.2-0.6,0.6-0.6l0.8,0c0.4,0,0.6,0.2,0.6,0.6l-0.1,4.9c0,1.1,0.7,1.8,1.6,1.8
			c0.9,0,1.7-0.6,1.7-1.7l0.1-4.9c0-0.4,0.2-0.6,0.6-0.6l0.8,0c0.4,0,0.6,0.2,0.6,0.6l-0.1,4.9c0,2.3-1.7,3.5-3.7,3.4
			C65.1,16.8,63.4,15.6,63.5,13.3z"/>
		<path class="st0" d="M71.8,15.4c-0.2-0.4,0.1-0.7,0.5-0.7l0.4-0.1c0.3-0.1,0.5,0.1,0.7,0.4c0.2,0.3,0.5,0.4,0.9,0.4
			c0.5,0,0.8-0.2,0.9-0.5c0-0.3-0.2-0.4-0.6-0.6L73.8,14c-0.7-0.3-1.8-0.8-1.7-2c0.1-1.2,1.1-2,2.5-1.9c0.8,0.1,1.6,0.4,2,1.1
			c0.2,0.4,0,0.7-0.4,0.8L75.9,12c-0.3,0.1-0.5-0.1-0.7-0.3c-0.2-0.2-0.4-0.3-0.6-0.3c-0.4,0-0.7,0.2-0.7,0.5c0,0.3,0.2,0.4,0.6,0.6
			l0.8,0.4c1.3,0.5,1.7,1.3,1.7,2.1c-0.1,1.4-1.3,2-2.7,1.9C73.1,16.8,72.2,16.3,71.8,15.4z"/>
		<path class="st0" d="M77.9,15.5c0.1-0.6,0.7-1,1.4-0.9c0.7,0.1,1.1,0.7,1,1.3c-0.1,0.6-0.7,1-1.4,0.9
			C78.2,16.7,77.8,16.1,77.9,15.5z M78.8,13.2L79,8.5l0-0.3c0-0.3,0.2-0.4,0.5-0.4L81,8c0.3,0,0.4,0.2,0.4,0.5l0,0.3l-1.2,4.5
			c-0.1,0.3-0.3,0.4-0.6,0.4l-0.4-0.1C78.9,13.6,78.7,13.5,78.8,13.2z"/>
	</g>
</g>
</svg>
