<?xml version="1.0" encoding="utf-8"?>
<!-- Generator: Adobe Illustrator 21.1.0, SVG Export Plug-In . SVG Version: 6.00 Build 0)  -->
<svg version="1.1" id="Layer_1" xmlns="http://www.w3.org/2000/svg" xmlns:xlink="http://www.w3.org/1999/xlink" x="0px" y="0px"
	 viewBox="0 0 15 15" style="enable-background:new 0 0 15 15;" xml:space="preserve">
<style type="text/css">
	.st0{fill:#FFFFFF;}
	.st1{fill:#505F6E;}
	.st2{fill:#FF3C64;}
	.st3{fill:#D13253;}
	.st4{fill:#333333;}
	.st5{fill:#FFBE28;}
	.st6{fill:#FF8E28;}
	.st7{fill:url(#SVGID_1_);}
	.st8{fill:url(#SVGID_2_);}
	.st9{fill:#779332;}
	.st10{fill:#89AE3F;}
	.st11{fill:none;}
	.st12{opacity:0.2;}
	.st13{fill:url(#SVGID_3_);}
	.st14{fill:url(#SVGID_4_);}
	.st15{opacity:0.3;fill:#FFFFFF;}
	.st16{fill:url(#SVGID_5_);}
	.st17{fill:url(#SVGID_6_);}
	.st18{fill:#808080;}
</style>
<path class="st0" d="M12.7,3.5H2.3c-0.4,0-0.8,0.4-0.8,0.8v7.4c0,0.4,0.4,0.8,0.8,0.8h10.5c0.4,0,0.8-0.4,0.8-0.8V4.3
	C13.5,3.9,13.2,3.5,12.7,3.5z M3.6,5.1h7.7L7.4,7.8C5.7,6.6,4,5.3,3.6,5.1z M3.1,10.9V6.3c0.6,0.5,1.7,1.3,4,2.9
	c0.1,0.1,0.2,0.1,0.4,0.1c0.1,0,0.3,0,0.4-0.1l4.1-2.9v4.7H3.1z"/>
</svg>
