<?xml version="1.0" encoding="utf-8"?>
<!-- Generator: Adobe Illustrator 21.1.0, SVG Export Plug-In . SVG Version: 6.00 Build 0)  -->
<svg version="1.1" id="Layer_1" xmlns="http://www.w3.org/2000/svg" xmlns:xlink="http://www.w3.org/1999/xlink" x="0px" y="0px"
	 viewBox="0 0 230 230" style="enable-background:new 0 0 230 230;" xml:space="preserve">
<style type="text/css">
	.st0{fill:#FFFFFF;}
	.st1{fill:#505F6E;}
	.st2{fill:#FF3C64;}
	.st3{fill:#D13253;}
	.st4{fill:#333333;}
	.st5{fill:#FFBE28;}
	.st6{fill:#FF8E28;}
	.st7{fill:url(#SVGID_1_);}
	.st8{fill:url(#SVGID_2_);}
	.st9{fill:#779332;}
	.st10{fill:#89AE3F;}
	.st11{fill:none;}
	.st12{opacity:0.2;}
	.st13{fill:url(#SVGID_3_);}
	.st14{fill:url(#SVGID_4_);}
	.st15{opacity:0.3;fill:#FFFFFF;}
	.st16{fill:url(#SVGID_5_);}
	.st17{fill:url(#SVGID_6_);}
	.st18{fill:#808080;}
</style>
<g>
	<g>
		<g>
			<g class="st12">
				<g>
					<path d="M93.7,46.9c0,0.6,0,1.2,0,1.8c0,0.9,0.7,1.7,1.6,1.7c0.9,0,1.6-0.7,1.6-1.7c0-0.6,0-1.2,0-1.8c0-0.9-0.7-1.7-1.6-1.7
						C94.4,45.3,93.7,46,93.7,46.9L93.7,46.9z"/>
				</g>
				<g>
					<path d="M72.4,61c0,0.5,0,0.9,0,1.4c0,0.9,0.7,1.7,1.6,1.7c0.9,0,1.6-0.7,1.6-1.7c0-0.5,0-0.9,0-1.4c0-0.9-0.7-1.7-1.6-1.7
						C73.2,59.3,72.4,60,72.4,61L72.4,61z"/>
				</g>
				<g>
					<path d="M41.6,75.8c-0.3,0.5-0.6,0.9-0.8,1.4c-0.5,0.8-0.1,1.9,0.6,2.3c0.8,0.5,1.7,0.2,2.2-0.6c0.3-0.5,0.6-0.9,0.8-1.4
						c0.5-0.8,0.1-1.9-0.6-2.3C42.9,74.7,42,75.1,41.6,75.8L41.6,75.8z"/>
				</g>
				<g>
					<path d="M95.8,71.9c-0.1,0.6-0.2,1.2-0.3,1.8c-0.1,0.9,0.2,1.9,1.1,2.1c0.8,0.2,1.8-0.3,1.9-1.2c0.1-0.6,0.2-1.2,0.3-1.8
						c0.1-0.9-0.2-1.9-1.1-2.1C97,70.5,96,70.9,95.8,71.9L95.8,71.9z"/>
				</g>
				<g>
					<path d="M121.3,57.1c-1.6,0.7-1.5,3.5,0,4.2c0.8,0.4,1.7,0.2,2.2-0.6c0.4-0.7,0.2-1.9-0.6-2.3c-0.3-0.2-0.2,0,0.4,0.6
						c0,0.1,0,0.2,0,0.3c0,0.1,0,0.2-0.1,0.3c-0.4,0.4-0.5,0.5-0.3,0.3c0.8-0.4,1-1.6,0.6-2.3C123,56.8,122.1,56.7,121.3,57.1
						L121.3,57.1z"/>
				</g>
				<g>
					<path d="M132,77.6c0.1,0.3,0.3,0.6,0.4,0.9c0.4,0.8,1.5,1,2.2,0.6c0.8-0.5,0.9-1.5,0.6-2.3c-0.1-0.3-0.3-0.6-0.4-0.9
						c-0.4-0.8-1.5-1-2.2-0.6C131.8,75.7,131.6,76.7,132,77.6L132,77.6z"/>
				</g>
				<g>
					<path d="M177.3,81.2c0.3,0.3,0.6,0.6,0.9,0.9c0.6,0.6,1.6,0.7,2.2,0c0.6-0.6,0.6-1.8,0-2.4c-0.3-0.3-0.6-0.6-0.9-0.9
						c-0.6-0.6-1.6-0.7-2.2,0C176.7,79.5,176.7,80.6,177.3,81.2L177.3,81.2z"/>
				</g>
			</g>
			<g>
				<path class="st0" d="M205.8,165.2L205.8,165.2c0.1,0-1-6.9-1-11.3c0-0.3,0-0.5,0-0.6c0-21.3-3.6-30.7-9.6-41.3
					c-6.9-12.1-16-16.7-25.1-16.6c-13.4,0.1-27,10.6-33.6,22.5c-12.1,21.7-14.5,44.1-15.6,61.6c-0.5,7.5-10.9,7.5-11.4,0
					c-1.2-17.5-3.5-39.9-15.6-61.6C87.1,106,73.5,95.6,60.1,95.4c-9.2-0.2-18.3,4.4-25.1,16.6c-6,10.6-9.7,20-9.6,41.3
					c0,0.1,0,0.3,0,0.6c0,4.4-1.1,11.3-1.1,11.3l0.1,0c-0.3,2.2-0.6,5-0.5,8.4c-0.2,12.2,3.2,26.1,24,36.1c0.2,0.1,0.4,0.2,0.6,0.4
					c0,0,0,0,0,0s16.7,10.7,63.1,11.4c0.6,0,2.1,0,3.7,0c1.6,0,3.1,0,3.7,0c46.4-0.7,63.1-11.4,63.1-11.4s0,0,0,0
					c0.2-0.1,0.4-0.2,0.6-0.4c20.8-10,24.2-23.8,24-36.1C206.4,170.3,206.1,167.4,205.8,165.2z"/>
				<g>
					<g>
						<path id="spLeftEye" class="st4 spEye" d="M62.6,148.5c4,3.5,7.5,8.8,6.1,10.9c-1.4,2.2-7.3,0.4-11.2-3.1s-4.6-7.5-3.1-9.6
							C55.7,144.5,58.6,145,62.6,148.5z"/>
					</g>
					<g>
						<path id="spRightEye" class="st4 spEye" d="M167.4,148.5c-4,3.5-7.5,8.8-6.1,10.9c1.4,2.2,7.3,0.4,11.2-3.1c4-3.5,4.6-7.5,3.1-9.6
							C174.3,144.5,171.4,145,167.4,148.5z"/>
					</g>
				</g>
				<g>
					<path class="st5" d="M112.6,167.3c-3.3,3.7-9.1,9.8-11,14.7c-0.1,0.3-0.1,0.5,0.1,0.8c3.5,5.5,11,10.3,13,11.4
						c0.3,0.2,0.6,0.2,0.9,0c1.9-1.2,9.4-5.9,13-11.4c0.1-0.2,0.2-0.5,0.1-0.8c-1.9-4.9-7.7-11-11-14.7
						C116.1,165.8,113.9,165.8,112.6,167.3z"/>
					<path class="st6" d="M128.6,182.3l-13.6,3.1l-13.6-3.1c0,0,0,0,0,0.1c0.2,0.3,0.3,0.5,0.5,0.8c4.2,6.1,13.1,11.3,13.1,11.3
						s9-5.2,13.1-11.3C128.3,182.9,128.5,182.6,128.6,182.3C128.6,182.3,128.6,182.3,128.6,182.3z"/>
				</g>
				<g>
					
						<radialGradient id="SVGID_1_" cx="-3086.3555" cy="8870.7041" r="60.1052" gradientTransform="matrix(0.3495 5.349218e-02 -1.647938e-02 0.106 1273.6293 -598.5023)" gradientUnits="userSpaceOnUse">
						<stop  offset="0" style="stop-color:#FF3C64;stop-opacity:0.5"/>
						<stop  offset="1" style="stop-color:#FF3C64;stop-opacity:0"/>
					</radialGradient>
					<path class="st7" d="M69.8,180c-0.5,3.5-10.4,4.9-22,3.2s-20.6-6.1-20-9.6s10.4-4.9,22-3.2S70.3,176.5,69.8,180z"/>
					
						<radialGradient id="SVGID_2_" cx="-19385.6836" cy="17095.373" r="60.1052" gradientTransform="matrix(-0.3495 5.349218e-02 1.647938e-02 0.106 -6875.6294 -598.5023)" gradientUnits="userSpaceOnUse">
						<stop  offset="0" style="stop-color:#FF3C64;stop-opacity:0.5"/>
						<stop  offset="1" style="stop-color:#FF3C64;stop-opacity:0"/>
					</radialGradient>
					<path class="st8" d="M160.2,180c0.5,3.5,10.4,4.9,22,3.2s20.6-6.1,20-9.6c-0.5-3.5-10.4-4.9-22-3.2S159.7,176.5,160.2,180z"/>
				</g>
			</g>
		</g>
		<g>
			<path class="st9" d="M166.9,47.8c0,0,17.9-14.9,6.7-25c-11.2-10.1-14-6.9-14-6.9s7.4-3.9,27.2,16.5s-1.1,37.6-19.4,25.3
				L166.9,47.8z"/>
			<path class="st10" d="M170.1,66.7c0,0,18.7-19,39.2-2.7C227.6,78.7,230,72,230,72s-5.3,25.9-33.8,3.8
				C177.9,61.5,170.1,66.7,170.1,66.7z"/>
			<path class="st9" d="M173.9,64.3c0,0,4.7-31.2-25.3-39C121.8,18.2,124.1,0,124.1,0s-18.3,34.6,22.8,45.9
				C173.3,53.2,173.9,64.3,173.9,64.3z"/>
			<path class="st10" d="M147.8,80.4c0,0-4.4-37.6,13.9-30s17.8,16.5,8,18.7C159.9,71.3,151.7,65.3,147.8,80.4z"/>
		</g>
	</g>
	<rect class="st11" width="230" height="230"/>
</g>
</svg>
