<?xml version="1.0" encoding="utf-8"?>
<!-- Generator: Adobe Illustrator 21.1.0, SVG Export Plug-In . SVG Version: 6.00 Build 0)  -->
<svg version="1.1" id="Layer_1" xmlns="http://www.w3.org/2000/svg" xmlns:xlink="http://www.w3.org/1999/xlink" x="0px" y="0px"
	 viewBox="0 0 500 390" style="enable-background:new 0 0 500 390;" xml:space="preserve">
<style type="text/css">
	.st0{fill:#FFFFFF;}
	.st1{fill:#505F6E;}
	.st2{fill:#FF3C64;}
	.st3{fill:#D13253;}
	.st4{fill:#333333;}
	.st5{fill:#FFBE28;}
	.st6{fill:#FF8E28;}
	.st7{fill:url(#SVGID_1_);}
	.st8{fill:url(#SVGID_2_);}
	.st9{fill:#779332;}
	.st10{fill:#89AE3F;}
	.st11{fill:none;}
	.st12{opacity:0.2;}
	.st13{fill:url(#SVGID_3_);}
	.st14{fill:url(#SVGID_4_);}
	.st15{opacity:0.3;fill:#FFFFFF;}
	.st16{fill:url(#SVGID_5_);}
	.st17{fill:url(#SVGID_6_);}
	.st18{fill:#808080;}
</style>
<g>
	<g>
		<path class="st0" d="M132.6,21.8c-20.7-40.2-81.4-19-70.4,25.6c7.4,30.2,48.9,58.5,30.4,92c-10.4,19-33.3,26.4-53.5,20.2
			c-12.7-3.9-23.6-13.1-26.7-26.5c-3.8-16,6.8-34.6,25.3-29.4c7.2,2,10.2-9.1,3.1-11.1C16.4,85.9-2.5,107,0.3,130.8
			c3.4,29.7,35.1,46.5,62.8,42c26.7-4.3,48.8-29.5,45-57.1c-2.5-18-14-33.8-23.5-48.7c-9-14.1-19.1-33.8-4.6-48.5
			c13.7-13.9,34.5-6.8,42.7,9.1C126,34.2,135.9,28.4,132.6,21.8L132.6,21.8z"/>
		<path class="st0" d="M118.2,69c14.1,12.2,31.6,17.7,49.9,13c7.2-1.8,4.1-12.9-3.1-11.1c-14.1,3.6-27.8-0.6-38.7-10
			C120.8,56,112.6,64.1,118.2,69L118.2,69z"/>
		<path class="st0" d="M143.1,38.2c-7.8,22.6-20.3,57.9-6.6,80.6c10.1,16.8,31.9,18.3,44.6,3.8c4.9-5.5-3.2-13.7-8.1-8.1
			c-10.5,11.9-25.4,6.2-29.4-8.3c-1.8-6.5-1.2-13.9-0.4-20.5c1.7-15.2,6-30.1,11-44.5C156.6,34.2,145.5,31.2,143.1,38.2L143.1,38.2z
			"/>
		<path class="st0" d="M171.9,64.9c11.9,10,18.3,23.8,18,39.4c3.8,0,7.7,0,11.5,0c0-15.4,7.3-29.4,20.2-38c6.1-4.1,0.4-14.1-5.8-9.9
			c-16.3,10.8-25.9,28.4-25.9,47.9c0,7.4,11.4,7.4,11.5,0c0.4-18.4-7.3-35.7-21.4-47.6C174.4,52.1,166.2,60.2,171.9,64.9L171.9,64.9
			z"/>
		<path class="st0" d="M237.4,56.3c25-7.5,40.3,27.9,17,40.2c-4.2,2.2-11.5,4.2-16,2.1c-12-5.5-2.5-15.3,4.1-18
			c8.9-3.5,19.1-3,28.4-2.8c7.4,0.2,7.4-11.3,0-11.5c-16.8-0.4-40-0.6-48,17.6c-9,20.4,14,30.2,30.6,25.3
			c42.1-12.4,22.4-76.4-19.2-64C227.3,47.3,230.3,58.4,237.4,56.3L237.4,56.3z"/>
		<path class="st0" d="M264.5,72c1.6,12.6,3.2,29.4,15.3,36.6c6.4,3.8,12.2-6.2,5.8-9.9c-7.8-4.6-8.6-18.6-9.6-26.7
			C275.1,64.8,263.6,64.7,264.5,72L264.5,72z"/>
		<path class="st0" d="M289.1,59c-4.2,15.5,0,34.9,16.6,41.2c15.7,5.9,30.4-6.4,31.3-22.2c0.4-7.4-11.1-7.4-11.5,0
			c-0.6,9.8-10.5,15.4-18.8,9.8c-8.3-5.6-8.8-17-6.4-25.7C302.1,54.9,291,51.8,289.1,59L289.1,59z"/>
		<path class="st0" d="M326.3,80.7c13.7,19.7,42.9,29.4,62.9,12.2c22.5-19.4,4.8-48.3-18.3-56c-7-2.3-10.1,8.8-3.1,11.1
			c7.2,2.4,14.3,6.4,17.8,13.4c5.6,11.1-0.2,22.8-11.4,26.8c-14.4,5.2-29.5-1.2-38-13.4C332,68.9,322,74.6,326.3,80.7L326.3,80.7z"
			/>
		<path class="st0" d="M120.4,134.4c-15.4,35.4-1.6,69.4,14.1,102c2.9,6.1,11.8,1.6,10.5-4.4c-1.6-7.7-3.5-15.6-3.4-23.5
			c0.1-11.2,6.9-38.6,28.8-22.8c10.2,7.3,15,26.7,3.2,35.7c-8.2,6.3-21.4,3.1-29.3-1.5c-6.4-3.7-12.2,6.2-5.8,9.9
			c15.4,8.9,38,9.7,49.6-6.2c9.7-13.3,3.2-30.4-6.1-42.1c-9.7-12.1-24.2-17.3-37.5-7.1c-18.8,14.5-14.9,40.5-10.6,60.6
			c3.5-1.5,7-3,10.5-4.4c-13.5-28.2-27.6-59.4-14.1-90.4C133.3,133.5,123.4,127.6,120.4,134.4L120.4,134.4z"/>
		<path class="st1" d="M83.1,341.3c15.1-5.1,43.8-22.8,29.7-42.5c-11.3-15.8-34.6-8.2-43.1,6.1c-10.2,17-1.7,37.4,15,46.3
			c19.7,10.5,42.1,1.6,56.1-13.9c4.9-5.5-3.2-13.7-8.1-8.1c-13.3,14.8-39,23.2-52.3,3.1c-6.7-10.1-3.7-24.6,8.1-29.3
			c13.1-5.3,16.8,9.2,8.4,18.1c-4.3,4.6-11.2,7.1-16.9,9.1C73.1,332.6,76.1,343.7,83.1,341.3L83.1,341.3z"/>
		<path class="st0" d="M245.6,137.9c9.8,13.9,13.8,29.5,11.8,46.4c3.8,0,7.7,0,11.5,0c0.8-13.3,5.1-26.5,20.8-25.5
			c7.4,0.5,7.4-11,0-11.5c-22.2-1.4-31.2,17.6-32.3,37c-0.4,7.5,10.7,7.2,11.5,0c2.2-18.6-2.5-36.9-13.3-52.2
			C251.3,126.1,241.3,131.9,245.6,137.9L245.6,137.9z"/>
		<path class="st0" d="M296.3,129.3c7.7,14.1,11.2,29.1,10,45.1c-0.5,6.4,10.3,8,11.3,1.5c2.5-15.6,7-26.9,24.7-26.1
			c7.4,0.3,7.4-11.2,0-11.5c-22.8-1.1-32.6,13.7-35.8,34.5c3.8,0.5,7.5,1,11.3,1.5c1.3-18-3-35.2-11.6-50.9
			C302.7,117,292.8,122.8,296.3,129.3L296.3,129.3z"/>
		<path class="st0" d="M361.7,115.3c-11.9,16.7-2.1,50.9,22.2,47.4c17.1-2.4,23.5-23,26.3-37.5c1.4-7.2-9.7-10.3-11.1-3.1
			c-1.7,8.8-4,19.7-10.8,26c-5.9,5.5-13.4,3-17.4-3.6c-4.3-7.1-4-16.8,0.7-23.4C376,115,366,109.3,361.7,115.3L361.7,115.3z"/>
		<path class="st1" d="M31.1,196.8c-25.2,56.9-20.8,134,28.6,176.9c5.6,4.8,13.7-3.3,8.1-8.1c-45.3-39.4-50-110.6-26.8-163
			C44,195.9,34.1,190,31.1,196.8L31.1,196.8z"/>
		<path class="st1" d="M17.6,223.3c19-8.3,54.6-9.4,68,10.6c22.5,33.4-34.2,45-55.9,40.6c-7.2-1.5-10.3,9.6-3.1,11.1
			c26,5.3,84.4-6,75.9-44.4c-8.3-37.4-63.2-39.7-90.7-27.7C5,216.3,10.9,226.2,17.6,223.3L17.6,223.3z"/>
		<path class="st1" d="M126.7,276.8c6.1,15,10.9,30.5,17,45.5c2.2,5.4,11.9,5.6,11.3-1.5c-0.9-10.6-11-36.6,0.6-43.5
			c16.7-9.9,25,24.3,28,35.3c1.9,7.2,13,4.1,11.1-3.1c-4.5-16.9-13.8-51-37.8-45.6c-27,6.1-14.9,38.8-13.4,56.8
			c3.8-0.5,7.5-1,11.3-1.5c-6.1-15-10.9-30.5-17-45.5C135,267,123.9,270,126.7,276.8L126.7,276.8z"/>
		<path class="st1" d="M242.3,234.9c-14.7-2.1-30.5,1.8-39.4,14.6c-8.7,12.4-8.6,30.7,2.8,41.4c10.1,9.5,26.1,11,37,2.1
			c14.6-12,13-32.3,8-48.5c-2.2-7.1-13.3-4-11.1,3.1c3.1,9.9,5.6,21.4,0.3,31.1c-5.3,9.6-17.2,11.7-25.6,4.5
			c-8-6.9-7.6-18.9-1.8-27.1c5.9-8.4,16.9-11.4,26.8-10C246.5,247,249.6,236,242.3,234.9L242.3,234.9z"/>
		<path class="st1" d="M239.2,246.6c10.1,28.1,13,63.6-2,90.8c-13.8,25.1-57.6,33.5-75.3,7.5c-4.1-6.1-14.1-0.3-9.9,5.8
			c17.6,25.8,59,27.8,82.3,8.4c31.6-26.3,28.6-81,16.1-115.6C247.8,236.6,236.7,239.6,239.2,246.6L239.2,246.6z"/>
		<path class="st1" d="M269.2,244.9c-2.5,19.7-1.6,50.4,24.2,53.9c26.8,3.6,33.9-27.7,34.2-47.7c0.1-7.6-10.7-7.2-11.5,0
			c-1.4,12.9-2.9,25.8-4.3,38.6c-0.8,7.4,10.7,7.3,11.5,0c1.4-12.9,2.9-25.8,4.3-38.6c-3.8,0-7.7,0-11.5,0c-0.1,8.3-0.2,17-3.8,24.6
			c-3.7,7.6-12,14.8-20.9,10.6c-15.2-7.1-12.3-28.1-10.6-41.5C281.7,237.6,270.2,237.6,269.2,244.9L269.2,244.9z"/>
		<path class="st1" d="M340.2,268.8c-3.2,9.8-4.8,19.9-4.9,30.2c3.6-1,7.2-1.9,10.7-2.9c-0.3-0.6-0.6-1.2-0.9-1.9
			c-3.3-6.6-13.2-0.8-9.9,5.8c0.3,0.6,0.6,1.2,0.9,1.9c2.6,5.3,10.7,2.5,10.7-2.9c0.1-9.3,1.6-18.3,4.5-27.1
			C353.6,264.8,342.5,261.8,340.2,268.8L340.2,268.8z"/>
		<path class="st1" d="M345.4,257.5c2.1,3.7,5.8,4.9,9.8,4.3c3.1-0.4,4.8-4.3,4-7.1c-0.9-3.3-4-4.5-7.1-4c1-0.1,2.6,0,3.2,1
			c-1.5-2.7-5.2-3.6-7.9-2.1C344.8,251.2,343.9,254.8,345.4,257.5L345.4,257.5z"/>
		<path class="st1" d="M365.7,270.4c-2.2,13.4-5.7,26.3-10.7,38.9c3.7,1,7.4,2,11.1,3.1c2.4-10.1,8.7-28.6,22.3-27.2
			c18.1,1.8,8.6,28,1.7,35.7c-4.9,5.5,3.2,13.7,8.1,8.1c12.3-13.7,20-43.5-1.7-53.4c-22.2-10.2-37.3,16.2-41.6,33.7
			c-1.8,7.4,8.4,9.8,11.1,3.1c5-12.6,8.5-25.5,10.7-38.9C378,266.2,366.9,263.1,365.7,270.4L365.7,270.4z"/>
		<path class="st1" d="M468.5,314.4c-5.2-14-18.7-24.6-34.5-21.3c-13.2,2.7-16.2,15.3-17,27.2c-1.4,22.6,7.4,56.6-26.1,57.7
			c-26,0.8-57-18.9-60.9-45.6c-1.1-7.3-12.2-4.2-11.1,3.1c4.9,33.3,45.5,57.6,77.5,53.6c13-1.6,23.7-8.8,29.1-20.9
			c3.9-8.8,3.7-18,3.4-27.4c-0.2-6-0.7-12-0.5-18c0.8-16.2,20.4-28.1,28.9-5.3C460,324.3,471.1,321.4,468.5,314.4L468.5,314.4z"/>
		<path class="st0" d="M398.9,123.6c-0.3,27.7-14.7,56.6-36.2,73.6c-10.9,8.7-23.3,15.3-37.1,18.4c-4.3,0.9-24.2,3.3-25.7-3.9
			c-1.4-6.9,16.5-5.3,20.3-5c25.8,2,43.7,27,64.6,40.3c20.7,13.1,43.1,21.4,67.8,16.3c41.1-8.3,61.4-58.4,36.2-92.6
			c-20.8-28.1-73.6-33.4-81.8,8.4c-3.5,17.9,7.6,40.5,27.2,42.8c14.4,1.7,28.3-10.6,25.7-25.2c-1.3-7.3-12.4-4.2-11.1,3.1
			c-0.6,10.5-8.5,12.2-23.8,5c-5.1-5.7-7.5-12.2-7.3-19.7c0.7-11.7,9.3-22.2,20.7-24.9c20.2-4.8,41,10.7,47.5,29.1
			c14,39.6-24.2,69.8-61.2,63c-44.8-8.2-79.2-76.7-129.8-54.2c-10.6,4.7-11.4,13.6-3.3,21.6c13.3,13.1,34.3,8.6,49.8,2.7
			c40-15.2,68.4-56,68.8-99C410.5,116.2,399,116.2,398.9,123.6L398.9,123.6z"/>
		<path class="st0" d="M203.7,179.5c12.1-8.3,34.6-16.8,28.8-36c-5.1-16.8-23.8-12.4-32.2-1.1c-10.6,14.2-12,34.7,0.2,48.4
			c11.5,12.9,30.7,13.2,43.3,1.8c5.5-5-2.7-13.1-8.1-8.1c-7.5,6.8-18.9,6.6-26-0.7c-7.1-7.3-7.8-18.1-4.1-27.2c1.6-4,5.8-12.9,11-13
			c7.5-0.1,5,8.9,2.2,12.3c-5.1,6.2-14.3,9.2-20.8,13.6C191.8,173.7,197.6,183.7,203.7,179.5L203.7,179.5z"/>
	</g>
</g>
<g>
	<g>
		<g>
			<path class="st2" d="M250,110C250,110,250,110,250,110C250,110,250,110,250,110c-83.4,0-110,73.7-110,130.9c0,0.3,0,0.6,0,0.9
				c-0.6,64.3,49.5,68.2,110,68.2c0,0,0,0,0,0c0,0,0,0,0,0s0,0,0,0c0,0,0,0,0,0c60.4,0,110.5-3.9,110-68.2c0-0.3,0-0.6,0-0.9
				C360,183.7,333.4,110,250,110z"/>
			<g>
				<g>
					<path class="st3" d="M228.7,126.9c0,0.6,0,1.2,0,1.8c0,0.9,0.7,1.7,1.6,1.7c0.9,0,1.6-0.7,1.6-1.7c0-0.6,0-1.2,0-1.8
						c0-0.9-0.7-1.7-1.6-1.7C229.4,125.3,228.7,126,228.7,126.9L228.7,126.9z"/>
				</g>
				<g>
					<path class="st3" d="M207.4,141c0,0.5,0,0.9,0,1.4c0,0.9,0.7,1.7,1.6,1.7c0.9,0,1.6-0.7,1.6-1.7c0-0.5,0-0.9,0-1.4
						c0-0.9-0.7-1.7-1.6-1.7C208.2,139.3,207.4,140,207.4,141L207.4,141z"/>
				</g>
				<g>
					<path class="st3" d="M176.6,155.8c-0.3,0.5-0.6,0.9-0.8,1.4c-0.5,0.8-0.1,1.9,0.6,2.3c0.8,0.5,1.7,0.2,2.2-0.6
						c0.3-0.5,0.6-0.9,0.8-1.4c0.5-0.8,0.1-1.9-0.6-2.3C177.9,154.7,177,155.1,176.6,155.8L176.6,155.8z"/>
				</g>
				<g>
					<path class="st3" d="M230.8,151.9c-0.1,0.6-0.2,1.2-0.3,1.8c-0.1,0.9,0.2,1.9,1.1,2.1c0.8,0.2,1.8-0.3,1.9-1.2
						c0.1-0.6,0.2-1.2,0.3-1.8c0.1-0.9-0.2-1.9-1.1-2.1C232,150.5,231,150.9,230.8,151.9L230.8,151.9z"/>
				</g>
				<g>
					<path class="st3" d="M256.3,137.1c-1.6,0.7-1.5,3.5,0,4.2c0.8,0.4,1.7,0.2,2.2-0.6c0.4-0.7,0.2-1.9-0.6-2.3
						c-0.3-0.2-0.2,0,0.4,0.6c0,0.1,0,0.2,0,0.3c0,0.1,0,0.2-0.1,0.3c-0.4,0.4-0.5,0.5-0.3,0.3c0.8-0.4,1-1.6,0.6-2.3
						C258,136.8,257.1,136.7,256.3,137.1L256.3,137.1z"/>
				</g>
				<g>
					<path class="st3" d="M267,157.6c0.1,0.3,0.3,0.6,0.4,0.9c0.4,0.8,1.5,1,2.2,0.6c0.8-0.5,0.9-1.5,0.6-2.3
						c-0.1-0.3-0.3-0.6-0.4-0.9c-0.4-0.8-1.5-1-2.2-0.6C266.8,155.7,266.6,156.7,267,157.6L267,157.6z"/>
				</g>
				<g>
					<path class="st3" d="M312.3,161.2c0.3,0.3,0.6,0.6,0.9,0.9c0.6,0.6,1.6,0.7,2.2,0c0.6-0.6,0.6-1.8,0-2.4
						c-0.3-0.3-0.6-0.6-0.9-0.9c-0.6-0.6-1.6-0.7-2.2,0C311.7,159.5,311.7,160.6,312.3,161.2L312.3,161.2z"/>
				</g>
			</g>
			<g>
				<path class="st0" d="M340.8,245.2L340.8,245.2c0.1,0-1-6.9-1-11.3c0-0.3,0-0.5,0-0.6c0-21.3-3.6-30.7-9.6-41.3
					c-6.9-12.1-16-16.7-25.1-16.6c-13.4,0.1-27,10.6-33.6,22.5c-12.1,21.7-14.5,44.1-15.6,61.6c-0.5,7.5-10.9,7.5-11.4,0
					c-1.2-17.5-3.5-39.9-15.6-61.6c-6.7-11.9-20.2-22.3-33.6-22.5c-9.2-0.2-18.3,4.4-25.1,16.6c-6,10.6-9.7,20-9.6,41.3
					c0,0.1,0,0.3,0,0.6c0,4.4-1.1,11.3-1.1,11.3l0.1,0c-0.3,2.2-0.6,5-0.5,8.4c-0.2,12.2,3.2,26.1,24,36.1c0.2,0.1,0.4,0.2,0.6,0.4
					c0,0,0,0,0,0s16.7,10.7,63.1,11.4c0.6,0,2.1,0,3.7,0c1.6,0,3.1,0,3.7,0c46.4-0.7,63.1-11.4,63.1-11.4s0,0,0,0
					c0.2-0.1,0.4-0.2,0.6-0.4c20.8-10,24.2-23.8,24-36.1C341.4,250.3,341.1,247.4,340.8,245.2z"/>
				<g>
					<g>
						<path class="st4" d="M197.6,228.5c4,3.5,7.5,8.8,6.1,10.9c-1.4,2.2-7.3,0.4-11.2-3.1c-4-3.5-4.6-7.5-3.1-9.6
							C190.7,224.5,193.6,225,197.6,228.5z"/>
					</g>
					<g>
						<path class="st4" d="M302.4,228.5c-4,3.5-7.5,8.8-6.1,10.9c1.4,2.2,7.3,0.4,11.2-3.1c4-3.5,4.6-7.5,3.1-9.6
							C309.3,224.5,306.4,225,302.4,228.5z"/>
					</g>
				</g>
				<g>
					<path class="st5" d="M247.6,247.3c-3.3,3.7-9.1,9.8-11,14.7c-0.1,0.3-0.1,0.5,0.1,0.8c3.5,5.5,11,10.3,13,11.4
						c0.3,0.2,0.6,0.2,0.9,0c1.9-1.2,9.4-5.9,13-11.4c0.1-0.2,0.2-0.5,0.1-0.8c-1.9-4.9-7.7-11-11-14.7
						C251.1,245.8,248.9,245.8,247.6,247.3z"/>
					<path class="st6" d="M263.6,262.3l-13.6,3.1l-13.6-3.1c0,0,0,0,0,0.1c0.2,0.3,0.3,0.5,0.5,0.8c4.2,6.1,13.1,11.3,13.1,11.3
						s9-5.2,13.1-11.3C263.3,262.9,263.5,262.6,263.6,262.3C263.6,262.3,263.6,262.3,263.6,262.3z"/>
				</g>
				<g>
					
						<radialGradient id="SVGID_1_" cx="-4326.9702" cy="9697.9316" r="60.1052" gradientTransform="matrix(0.3495 5.349218e-02 -1.647938e-02 0.106 1855.8447 -539.8323)" gradientUnits="userSpaceOnUse">
						<stop  offset="0" style="stop-color:#FF3C64;stop-opacity:0.5"/>
						<stop  offset="1" style="stop-color:#FF3C64;stop-opacity:0"/>
					</radialGradient>
					<path class="st7" d="M204.8,260c-0.5,3.5-10.4,4.9-22,3.2c-11.6-1.8-20.6-6.1-20-9.6c0.5-3.5,10.4-4.9,22-3.2
						S205.3,256.5,204.8,260z"/>
					
						<radialGradient id="SVGID_2_" cx="-16394.957" cy="15787.458" r="60.1052" gradientTransform="matrix(-0.3495 5.349218e-02 1.647938e-02 0.106 -5673.8447 -539.8323)" gradientUnits="userSpaceOnUse">
						<stop  offset="0" style="stop-color:#FF3C64;stop-opacity:0.5"/>
						<stop  offset="1" style="stop-color:#FF3C64;stop-opacity:0"/>
					</radialGradient>
					<path class="st8" d="M295.2,260c0.5,3.5,10.4,4.9,22,3.2c11.6-1.8,20.6-6.1,20-9.6c-0.5-3.5-10.4-4.9-22-3.2
						S294.7,256.5,295.2,260z"/>
				</g>
			</g>
		</g>
		<g>
			<path class="st9" d="M301.9,127.8c0,0,17.9-14.9,6.7-25s-14-6.9-14-6.9s7.4-3.9,27.2,16.5s-1.1,37.6-19.4,25.3L301.9,127.8z"/>
			<path class="st10" d="M305.1,146.7c0,0,18.7-19,39.2-2.7c18.4,14.6,20.7,7.9,20.7,7.9s-5.3,25.9-33.8,3.8
				C312.9,141.5,305.1,146.7,305.1,146.7z"/>
			<path class="st9" d="M308.9,144.3c0,0,4.7-31.2-25.3-39C256.8,98.2,259.1,80,259.1,80s-18.3,34.6,22.8,45.9
				C308.3,133.2,308.9,144.3,308.9,144.3z"/>
			<path class="st10" d="M282.8,160.4c0,0-4.4-37.6,13.9-30c18.3,7.6,17.8,16.5,8,18.7C294.9,151.3,286.7,145.3,282.8,160.4z"/>
		</g>
	</g>
	<rect x="135" y="80" class="st11" width="230" height="230"/>
</g>
</svg>
