<?xml version="1.0" encoding="utf-8"?>
<!-- Generator: Adobe Illustrator 21.1.0, SVG Export Plug-In . SVG Version: 6.00 Build 0)  -->
<svg version="1.1" id="Layer_1" xmlns="http://www.w3.org/2000/svg" xmlns:xlink="http://www.w3.org/1999/xlink" x="0px" y="0px"
	 viewBox="0 0 15 15" style="enable-background:new 0 0 15 15;" xml:space="preserve">
<style type="text/css">
	.st0{fill:#FFFFFF;}
	.st1{fill:#505F6E;}
	.st2{fill:#FF3C64;}
	.st3{fill:#D13253;}
	.st4{fill:#333333;}
	.st5{fill:#FFBE28;}
	.st6{fill:#FF8E28;}
	.st7{fill:url(#SVGID_1_);}
	.st8{fill:url(#SVGID_2_);}
	.st9{fill:#779332;}
	.st10{fill:#89AE3F;}
	.st11{fill:none;}
	.st12{opacity:0.2;}
	.st13{fill:url(#SVGID_3_);}
	.st14{fill:url(#SVGID_4_);}
	.st15{opacity:0.3;fill:#FFFFFF;}
	.st16{fill:url(#SVGID_5_);}
	.st17{fill:url(#SVGID_6_);}
	.st18{fill:#808080;}
</style>
<g>
	<path class="st0" d="M7.5,2.5c-2.9,0-5.2,2.2-5.2,5c0,2,1.3,3.8,3.1,4.6c0-0.3,0-0.8,0.1-1.1c0.1-0.4,0.7-2.7,0.7-2.7S6,7.9,6,7.4
		c0-0.7,0.4-1.3,1-1.3c0.5,0,0.7,0.3,0.7,0.8c0,0.5-0.3,1.1-0.5,1.8c-0.1,0.5,0.3,1,0.8,1c1,0,1.6-1.2,1.6-2.7C9.7,5.9,8.9,5,7.6,5
		C6,5,5,6.2,5,7.4c0,0.4,0.1,0.7,0.3,1c0.1,0.1,0.1,0.2,0.1,0.3c0,0.1-0.1,0.3-0.1,0.4c0,0.1-0.1,0.2-0.3,0.1C4.3,8.9,4,8.2,4,7.3
		c0-1.4,1.2-3.1,3.7-3.1c2,0,3.3,1.4,3.3,2.9c0,2-1.1,3.4-2.8,3.4c-0.6,0-1.1-0.3-1.3-0.6c0,0-0.3,1.2-0.4,1.4
		C6.4,11.6,6.2,12,6,12.3c0.5,0.1,1,0.2,1.5,0.2c2.9,0,5.2-2.2,5.2-5C12.7,4.7,10.4,2.5,7.5,2.5z"/>
</g>
</svg>
