<?xml version="1.0" encoding="utf-8"?>
<!-- Generator: Adobe Illustrator 21.1.0, SVG Export Plug-In . SVG Version: 6.00 Build 0)  -->
<svg version="1.1" id="Layer_1" xmlns="http://www.w3.org/2000/svg" xmlns:xlink="http://www.w3.org/1999/xlink" x="0px" y="0px"
	 viewBox="0 0 40 40" style="enable-background:new 0 0 40 40;" xml:space="preserve">
<style type="text/css">
	.st0{fill:#FFFFFF;}
	.st1{fill:#505F6E;}
	.st2{fill:#FF3C64;}
	.st3{fill:#D13253;}
	.st4{fill:#333333;}
	.st5{fill:#FFBE28;}
	.st6{fill:#FF8E28;}
	.st7{fill:url(#SVGID_1_);}
	.st8{fill:url(#SVGID_2_);}
	.st9{fill:#779332;}
	.st10{fill:#89AE3F;}
	.st11{fill:none;}
	.st12{opacity:0.2;}
	.st13{fill:url(#SVGID_3_);}
	.st14{fill:url(#SVGID_4_);}
	.st15{opacity:0.3;fill:#FFFFFF;}
	.st16{fill:url(#SVGID_5_);}
	.st17{fill:url(#SVGID_6_);}
	.st18{fill:#808080;}
</style>
<g>
	<rect y="0" class="st11" width="40" height="40"/>
	<g>
		<g class="st12">
			<g>
				<path d="M12.3,9c0,0.1,0,0.2,0,0.3c0,0.2,0.1,0.3,0.3,0.3c0.2,0,0.3-0.1,0.3-0.3c0-0.1,0-0.2,0-0.3c0-0.2-0.1-0.3-0.3-0.3
					C12.5,8.7,12.3,8.8,12.3,9L12.3,9z"/>
			</g>
			<g>
				<path d="M8.6,11.5c0,0.1,0,0.2,0,0.2c0,0.2,0.1,0.3,0.3,0.3c0.2,0,0.3-0.1,0.3-0.3c0-0.1,0-0.2,0-0.2c0-0.2-0.1-0.3-0.3-0.3
					C8.7,11.2,8.6,11.3,8.6,11.5L8.6,11.5z"/>
			</g>
			<g>
				<path d="M3.2,14.1c0,0.1-0.1,0.2-0.1,0.2c-0.1,0.1,0,0.3,0.1,0.4c0.1,0.1,0.3,0,0.4-0.1c0-0.1,0.1-0.2,0.1-0.2
					c0.1-0.1,0-0.3-0.1-0.4C3.4,13.9,3.2,14,3.2,14.1L3.2,14.1z"/>
			</g>
			<g>
				<path d="M12.7,13.4c0,0.1,0,0.2-0.1,0.3c0,0.2,0,0.3,0.2,0.4c0.1,0,0.3,0,0.3-0.2c0-0.1,0-0.2,0.1-0.3c0-0.2,0-0.3-0.2-0.4
					C12.9,13.2,12.7,13.3,12.7,13.4L12.7,13.4z"/>
			</g>
			<g>
				<path d="M17.2,10.8c-0.3,0.1-0.3,0.6,0,0.8c0.1,0.1,0.3,0,0.4-0.1c0.1-0.1,0-0.3-0.1-0.4c-0.1,0,0,0,0.1,0.1c0,0,0,0,0,0.1
					c0,0,0,0,0,0.1c-0.1,0.1-0.1,0.1,0,0.1c0.1-0.1,0.2-0.3,0.1-0.4C17.5,10.8,17.3,10.7,17.2,10.8L17.2,10.8z"/>
			</g>
			<g>
				<path d="M19.1,14.4c0,0.1,0,0.1,0.1,0.2c0.1,0.1,0.3,0.2,0.4,0.1c0.1-0.1,0.2-0.3,0.1-0.4c0-0.1,0-0.1-0.1-0.2
					C19.5,14,19.3,14,19.2,14C19,14.1,19,14.3,19.1,14.4L19.1,14.4z"/>
			</g>
			<g>
				<path d="M27.1,15.1c0.1,0.1,0.1,0.1,0.2,0.2c0.1,0.1,0.3,0.1,0.4,0c0.1-0.1,0.1-0.3,0-0.4c-0.1-0.1-0.1-0.1-0.2-0.2
					c-0.1-0.1-0.3-0.1-0.4,0C27,14.8,27,15,27.1,15.1L27.1,15.1z"/>
			</g>
		</g>
		<g>
			<path class="st9" d="M25.3,8.4c0,0,3.2-2.6,1.2-4.4S24,2.8,24,2.8s1.3-0.7,4.8,2.9s-0.2,6.6-3.4,4.4L25.3,8.4z"/>
			<path class="st10" d="M25.8,11.7c0,0,3.3-3.3,6.9-0.5c3.2,2.6,3.6,1.4,3.6,1.4s-0.9,4.6-5.9,0.7C27.2,10.8,25.8,11.7,25.8,11.7z"
				/>
			<path class="st9" d="M26.5,11.3c0,0,0.8-5.5-4.4-6.9C17.3,3.2,17.7,0,17.7,0s-3.2,6.1,4,8.1C26.4,9.4,26.5,11.3,26.5,11.3z"/>
			<path class="st10" d="M21.9,14.1c0,0-0.8-6.6,2.5-5.3s3.1,2.9,1.4,3.3S22.6,11.5,21.9,14.1z"/>
		</g>
		<g>
			<path class="st0" d="M32.1,30L32.1,30c0,0-0.2-1.2-0.2-2c0-0.1,0-0.1,0-0.1c0-3.8-0.6-5.4-1.7-7.3c-1.2-2.2-2.8-3-4.4-2.9
				c-2.4,0-4.8,1.9-5.9,4c-2.1,3.9-2.5,7.8-2.8,10.9c-0.1,1.3-1.9,1.3-2,0c-0.2-3.1-0.6-7.1-2.8-10.9c-1.2-2.1-3.6-4-5.9-4
				c-1.6,0-3.2,0.8-4.4,2.9c-1.1,1.9-1.7,3.6-1.7,7.3c0,0,0,0.1,0,0.1c0,0.8-0.2,2-0.2,2l0,0C0,30.4,0,30.9,0,31.5
				c0,2.2,0.6,4.6,4.2,6.4c0,0,0.1,0,0.1,0.1c0,0,0,0,0,0s2.9,1.9,11.1,2c0.1,0,0.4,0,0.7,0c0.3,0,0.6,0,0.7,0
				c8.2-0.1,11.1-2,11.1-2s0,0,0,0c0,0,0.1,0,0.1-0.1c3.7-1.8,4.3-4.2,4.2-6.4C32.2,30.9,32.2,30.4,32.1,30z"/>
			<g>
				<g>
					<path class="st4" d="M6.9,27c0.7,0.6,1.3,1.6,1.1,1.9c-0.3,0.4-1.3,0.1-2-0.5s-0.8-1.3-0.6-1.7C5.6,26.3,6.2,26.4,6.9,27z"/>
				</g>
				<g>
					<path class="st4" d="M25.3,27c-0.7,0.6-1.3,1.6-1.1,1.9c0.3,0.4,1.3,0.1,2-0.5c0.7-0.6,0.8-1.3,0.6-1.7S26,26.4,25.3,27z"/>
				</g>
			</g>
			<g>
				<path class="st5" d="M15.7,30.4c-0.6,0.7-1.6,1.7-1.9,2.6c0,0,0,0.1,0,0.1c0.6,1,1.9,1.8,2.3,2c0,0,0.1,0,0.2,0
					c0.3-0.2,1.7-1.1,2.3-2c0,0,0-0.1,0-0.1c-0.3-0.9-1.4-1.9-1.9-2.6C16.3,30.1,15.9,30.1,15.7,30.4z"/>
				<path class="st6" d="M18.5,33.1l-2.4,0.6l-2.4-0.6c0,0,0,0,0,0c0,0,0.1,0.1,0.1,0.1c0.7,1.1,2.3,2,2.3,2s1.6-0.9,2.3-2
					C18.4,33.2,18.5,33.1,18.5,33.1C18.5,33.1,18.5,33.1,18.5,33.1z"/>
			</g>
			<g>
				
					<radialGradient id="SVGID_1_" cx="-5470.4761" cy="6917.9062" r="10.6837" gradientTransform="matrix(0.3465 5.345049e-02 -1.633917e-02 0.1059 2013.0723 -408.3153)" gradientUnits="userSpaceOnUse">
					<stop  offset="0" style="stop-color:#FF3C64;stop-opacity:0.5"/>
					<stop  offset="1" style="stop-color:#FF3C64;stop-opacity:0"/>
				</radialGradient>
				<path class="st7" d="M8.1,32.6c-0.1,0.6-1.8,0.9-3.9,0.6s-3.6-1.1-3.5-1.7c0.1-0.6,1.8-0.9,3.9-0.6C6.6,31.3,8.2,32,8.1,32.6z"
					/>
				
					<radialGradient id="SVGID_2_" cx="-14618.0811" cy="11533.8027" r="10.6837" gradientTransform="matrix(-0.3465 5.345049e-02 1.633917e-02 0.1059 -5226.1045 -408.3153)" gradientUnits="userSpaceOnUse">
					<stop  offset="0" style="stop-color:#FF3C64;stop-opacity:0.5"/>
					<stop  offset="1" style="stop-color:#FF3C64;stop-opacity:0"/>
				</radialGradient>
				<path class="st8" d="M24.1,32.6c0.1,0.6,1.8,0.9,3.9,0.6s3.6-1.1,3.5-1.7c-0.1-0.6-1.8-0.9-3.9-0.6C25.5,31.3,24,32,24.1,32.6z"
					/>
			</g>
		</g>
	</g>
</g>
</svg>
