<?xml version="1.0" encoding="utf-8"?>
<!-- Generator: Adobe Illustrator 21.1.0, SVG Export Plug-In . SVG Version: 6.00 Build 0)  -->
<svg version="1.1" id="Layer_1" xmlns="http://www.w3.org/2000/svg" xmlns:xlink="http://www.w3.org/1999/xlink" x="0px" y="0px"
	 viewBox="0 0 15 15" style="enable-background:new 0 0 15 15;" xml:space="preserve">
<style type="text/css">
	.st0{fill:#FFFFFF;}
	.st1{fill:#505F6E;}
	.st2{fill:#FF3C64;}
	.st3{fill:#D13253;}
	.st4{fill:#333333;}
	.st5{fill:#FFBE28;}
	.st6{fill:#FF8E28;}
	.st7{fill:url(#SVGID_1_);}
	.st8{fill:url(#SVGID_2_);}
	.st9{fill:#779332;}
	.st10{fill:#89AE3F;}
	.st11{fill:none;}
	.st12{opacity:0.2;}
	.st13{fill:url(#SVGID_3_);}
	.st14{fill:url(#SVGID_4_);}
	.st15{opacity:0.3;fill:#FFFFFF;}
	.st16{fill:url(#SVGID_5_);}
	.st17{fill:url(#SVGID_6_);}
	.st18{fill:#808080;}
</style>
<path class="st0" d="M10.3,11.9c-0.3,0.3-1.1,0.6-1.8,0.6H8.5c-2.3,0-2.8-1.6-2.8-2.6V7.3H4.8c-0.1,0-0.2-0.1-0.2-0.2v0V5.9
	c0-0.1,0.1-0.2,0.2-0.3C6,5.2,6.4,4.2,6.4,3.5c0-0.2,0.1-0.3,0.3-0.3h1.3c0.1,0,0.2,0.1,0.2,0.2v2.1h1.6c0.1,0,0.2,0.1,0.2,0.2v1.5
	c0,0.1-0.1,0.2-0.2,0.2H8.3v2.4c0,0.6,0.4,0.8,0.7,0.8c0.2,0,0.5-0.1,0.6-0.1c0.1,0,0.2-0.1,0.2,0c0.1,0,0.1,0.1,0.1,0.1l0.4,1.2
	C10.4,11.8,10.4,11.9,10.3,11.9z"/>
</svg>
