<?xml version="1.0" encoding="utf-8"?>
<!-- Generator: Adobe Illustrator 21.1.0, SVG Export Plug-In . SVG Version: 6.00 Build 0)  -->
<svg version="1.1" id="Layer_1" xmlns="http://www.w3.org/2000/svg" xmlns:xlink="http://www.w3.org/1999/xlink" x="0px" y="0px"
	 viewBox="0 0 15 15" style="enable-background:new 0 0 15 15;" xml:space="preserve">
<style type="text/css">
	.st0{fill:#FFFFFF;}
	.st1{fill:#505F6E;}
	.st2{fill:#FF3C64;}
	.st3{fill:#D13253;}
	.st4{fill:#333333;}
	.st5{fill:#FFBE28;}
	.st6{fill:#FF8E28;}
	.st7{fill:url(#SVGID_1_);}
	.st8{fill:url(#SVGID_2_);}
	.st9{fill:#779332;}
	.st10{fill:#89AE3F;}
	.st11{fill:none;}
	.st12{opacity:0.2;}
	.st13{fill:url(#SVGID_3_);}
	.st14{fill:url(#SVGID_4_);}
	.st15{opacity:0.3;fill:#FFFFFF;}
	.st16{fill:url(#SVGID_5_);}
	.st17{fill:url(#SVGID_6_);}
	.st18{fill:#808080;}
</style>
<path class="st0" d="M12.8,5.1c-0.4,0.2-0.8,0.3-1.3,0.3c0.5-0.3,0.8-0.7,1-1.2c-0.4,0.2-0.9,0.4-1.4,0.5c-0.4-0.4-1-0.7-1.6-0.7
	c-1.2,0-2.2,0.9-2.2,2.1c0,0.2,0,0.3,0.1,0.5C5.6,6.6,4,5.8,2.9,4.5C2.7,4.8,2.6,5.2,2.6,5.6c0,0.7,0.4,1.4,1,1.8
	c-0.4,0-0.7-0.1-1-0.3c0,0,0,0,0,0c0,1,0.8,1.9,1.8,2.1C4.2,9.2,4,9.2,3.8,9.2c-0.1,0-0.3,0-0.4,0c0.3,0.8,1.1,1.5,2,1.5
	c-0.7,0.6-1.7,0.9-2.7,0.9c-0.2,0-0.4,0-0.5,0c1,0.6,2.1,0.9,3.4,0.9c4,0,6.2-3.2,6.2-6c0-0.1,0-0.2,0-0.3
	C12.2,5.9,12.5,5.5,12.8,5.1z"/>
</svg>
